<svg width="24" height="24" viewBox="0 0 24 24" fill="none" xmlns="http://www.w3.org/2000/svg">
<path fill-rule="evenodd" clip-rule="evenodd" d="M12 0C12.4142 0 12.75 0.335786 12.75 0.75V23.25C12.75 23.6642 12.4142 24 12 24C11.5858 24 11.25 23.6642 11.25 23.25V0.75C11.25 0.335786 11.5858 0 12 0Z" fill="#19191B"/>
<path fill-rule="evenodd" clip-rule="evenodd" d="M0.96967 12.2197C1.26256 11.9268 1.73744 11.9268 2.03033 12.2197L12 22.1893L21.9697 12.2197C22.2626 11.9268 22.7374 11.9268 23.0303 12.2197C23.3232 12.5126 23.3232 12.9874 23.0303 13.2803L12.5303 23.7803C12.2374 24.0732 11.7626 24.0732 11.4697 23.7803L0.96967 13.2803C0.676777 12.9874 0.676777 12.5126 0.96967 12.2197Z" fill="#19191B"/>
</svg>
